<?xml version="1.0" encoding="utf-8" standalone="no"?>
<!DOCTYPE svg PUBLIC "-//W3C//DTD SVG 1.1//EN"
  "http://www.w3.org/Graphics/SVG/1.1/DTD/svg11.dtd">
<svg xmlns:xlink="http://www.w3.org/1999/xlink" width="568.615937pt" height="280.244062pt" viewBox="0 0 568.615937 280.244062" xmlns="http://www.w3.org/2000/svg" version="1.1">
 <metadata>
  <rdf:RDF xmlns:dc="http://purl.org/dc/elements/1.1/" xmlns:cc="http://creativecommons.org/ns#" xmlns:rdf="http://www.w3.org/1999/02/22-rdf-syntax-ns#">
   <cc:Work>
    <dc:type rdf:resource="http://purl.org/dc/dcmitype/StillImage"/>
    <dc:date>2026-04-19T11:47:28.456135</dc:date>
    <dc:format>image/svg+xml</dc:format>
    <dc:creator>
     <cc:Agent>
      <dc:title>Matplotlib v3.10.8, https://matplotlib.org/</dc:title>
     </cc:Agent>
    </dc:creator>
   </cc:Work>
  </rdf:RDF>
 </metadata>
 <defs>
  <style type="text/css">*{stroke-linejoin: round; stroke-linecap: butt}</style>
 </defs>
 <g id="figure_1">
  <g id="patch_1">
   <path d="M 0 280.244062 
L 568.615937 280.244062 
L 568.615937 0 
L 0 0 
z
" style="fill: #111827"/>
  </g>
  <g id="axes_1">
   <g id="patch_2">
    <path d="M 128.585938 241.72 
L 561.415937 241.72 
L 561.415937 7.2 
L 128.585938 7.2 
z
" style="fill: #111827"/>
   </g>
   <g id="matplotlib.axis_1">
    <g id="xtick_1">
     <g id="line2d_1">
      <path d="M 128.585938 241.72 
L 128.585938 7.2 
" clip-path="url(#p7b0f8f7c6d)" style="fill: none; stroke-dasharray: 2.22,0.96; stroke-dashoffset: 0; stroke: #374151; stroke-opacity: 0.5; stroke-width: 0.6"/>
     </g>
     <g id="line2d_2">
      <defs>
       <path id="mdb825850f4" d="M 0 0 
L 0 3.5 
" style="stroke: #e5e7eb; stroke-width: 0.8"/>
      </defs>
      <g>
       <use xlink:href="#mdb825850f4" x="128.585938" y="241.72" style="fill: #e5e7eb; stroke: #e5e7eb; stroke-width: 0.8"/>
      </g>
     </g>
     <g id="text_1">
      <!-- 0.0 -->
      <g style="fill: #e5e7eb" transform="translate(120.634375 256.318437) scale(0.1 -0.1)">
       <defs>
        <path id="DejaVuSans-30" d="M 2034 4250 
Q 1547 4250 1301 3770 
Q 1056 3291 1056 2328 
Q 1056 1369 1301 889 
Q 1547 409 2034 409 
Q 2525 409 2770 889 
Q 3016 1369 3016 2328 
Q 3016 3291 2770 3770 
Q 2525 4250 2034 4250 
z
M 2034 4750 
Q 2819 4750 3233 4129 
Q 3647 3509 3647 2328 
Q 3647 1150 3233 529 
Q 2819 -91 2034 -91 
Q 1250 -91 836 529 
Q 422 1150 422 2328 
Q 422 3509 836 4129 
Q 1250 4750 2034 4750 
z
" transform="scale(0.015625)"/>
        <path id="DejaVuSans-2e" d="M 684 794 
L 1344 794 
L 1344 0 
L 684 0 
L 684 794 
z
" transform="scale(0.015625)"/>
       </defs>
       <use xlink:href="#DejaVuSans-30"/>
       <use xlink:href="#DejaVuSans-2e" transform="translate(63.623047 0)"/>
       <use xlink:href="#DejaVuSans-30" transform="translate(95.410156 0)"/>
      </g>
     </g>
    </g>
    <g id="xtick_2">
     <g id="line2d_3">
      <path d="M 168.662789 241.72 
L 168.662789 7.2 
" clip-path="url(#p7b0f8f7c6d)" style="fill: none; stroke-dasharray: 2.22,0.96; stroke-dashoffset: 0; stroke: #374151; stroke-opacity: 0.5; stroke-width: 0.6"/>
     </g>
     <g id="line2d_4">
      <g>
       <use xlink:href="#mdb825850f4" x="168.662789" y="241.72" style="fill: #e5e7eb; stroke: #e5e7eb; stroke-width: 0.8"/>
      </g>
     </g>
     <g id="text_2">
      <!-- 0.1 -->
      <g style="fill: #e5e7eb" transform="translate(160.711227 256.318437) scale(0.1 -0.1)">
       <defs>
        <path id="DejaVuSans-31" d="M 794 531 
L 1825 531 
L 1825 4091 
L 703 3866 
L 703 4441 
L 1819 4666 
L 2450 4666 
L 2450 531 
L 3481 531 
L 3481 0 
L 794 0 
L 794 531 
z
" transform="scale(0.015625)"/>
       </defs>
       <use xlink:href="#DejaVuSans-30"/>
       <use xlink:href="#DejaVuSans-2e" transform="translate(63.623047 0)"/>
       <use xlink:href="#DejaVuSans-31" transform="translate(95.410156 0)"/>
      </g>
     </g>
    </g>
    <g id="xtick_3">
     <g id="line2d_5">
      <path d="M 208.739641 241.72 
L 208.739641 7.2 
" clip-path="url(#p7b0f8f7c6d)" style="fill: none; stroke-dasharray: 2.22,0.96; stroke-dashoffset: 0; stroke: #374151; stroke-opacity: 0.5; stroke-width: 0.6"/>
     </g>
     <g id="line2d_6">
      <g>
       <use xlink:href="#mdb825850f4" x="208.739641" y="241.72" style="fill: #e5e7eb; stroke: #e5e7eb; stroke-width: 0.8"/>
      </g>
     </g>
     <g id="text_3">
      <!-- 0.2 -->
      <g style="fill: #e5e7eb" transform="translate(200.788079 256.318437) scale(0.1 -0.1)">
       <defs>
        <path id="DejaVuSans-32" d="M 1228 531 
L 3431 531 
L 3431 0 
L 469 0 
L 469 531 
Q 828 903 1448 1529 
Q 2069 2156 2228 2338 
Q 2531 2678 2651 2914 
Q 2772 3150 2772 3378 
Q 2772 3750 2511 3984 
Q 2250 4219 1831 4219 
Q 1534 4219 1204 4116 
Q 875 4013 500 3803 
L 500 4441 
Q 881 4594 1212 4672 
Q 1544 4750 1819 4750 
Q 2544 4750 2975 4387 
Q 3406 4025 3406 3419 
Q 3406 3131 3298 2873 
Q 3191 2616 2906 2266 
Q 2828 2175 2409 1742 
Q 1991 1309 1228 531 
z
" transform="scale(0.015625)"/>
       </defs>
       <use xlink:href="#DejaVuSans-30"/>
       <use xlink:href="#DejaVuSans-2e" transform="translate(63.623047 0)"/>
       <use xlink:href="#DejaVuSans-32" transform="translate(95.410156 0)"/>
      </g>
     </g>
    </g>
    <g id="xtick_4">
     <g id="line2d_7">
      <path d="M 248.816493 241.72 
L 248.816493 7.2 
" clip-path="url(#p7b0f8f7c6d)" style="fill: none; stroke-dasharray: 2.22,0.96; stroke-dashoffset: 0; stroke: #374151; stroke-opacity: 0.5; stroke-width: 0.6"/>
     </g>
     <g id="line2d_8">
      <g>
       <use xlink:href="#mdb825850f4" x="248.816493" y="241.72" style="fill: #e5e7eb; stroke: #e5e7eb; stroke-width: 0.8"/>
      </g>
     </g>
     <g id="text_4">
      <!-- 0.3 -->
      <g style="fill: #e5e7eb" transform="translate(240.864931 256.318437) scale(0.1 -0.1)">
       <defs>
        <path id="DejaVuSans-33" d="M 2597 2516 
Q 3050 2419 3304 2112 
Q 3559 1806 3559 1356 
Q 3559 666 3084 287 
Q 2609 -91 1734 -91 
Q 1441 -91 1130 -33 
Q 819 25 488 141 
L 488 750 
Q 750 597 1062 519 
Q 1375 441 1716 441 
Q 2309 441 2620 675 
Q 2931 909 2931 1356 
Q 2931 1769 2642 2001 
Q 2353 2234 1838 2234 
L 1294 2234 
L 1294 2753 
L 1863 2753 
Q 2328 2753 2575 2939 
Q 2822 3125 2822 3475 
Q 2822 3834 2567 4026 
Q 2313 4219 1838 4219 
Q 1578 4219 1281 4162 
Q 984 4106 628 3988 
L 628 4550 
Q 988 4650 1302 4700 
Q 1616 4750 1894 4750 
Q 2613 4750 3031 4423 
Q 3450 4097 3450 3541 
Q 3450 3153 3228 2886 
Q 3006 2619 2597 2516 
z
" transform="scale(0.015625)"/>
       </defs>
       <use xlink:href="#DejaVuSans-30"/>
       <use xlink:href="#DejaVuSans-2e" transform="translate(63.623047 0)"/>
       <use xlink:href="#DejaVuSans-33" transform="translate(95.410156 0)"/>
      </g>
     </g>
    </g>
    <g id="xtick_5">
     <g id="line2d_9">
      <path d="M 288.893345 241.72 
L 288.893345 7.2 
" clip-path="url(#p7b0f8f7c6d)" style="fill: none; stroke-dasharray: 2.22,0.96; stroke-dashoffset: 0; stroke: #374151; stroke-opacity: 0.5; stroke-width: 0.6"/>
     </g>
     <g id="line2d_10">
      <g>
       <use xlink:href="#mdb825850f4" x="288.893345" y="241.72" style="fill: #e5e7eb; stroke: #e5e7eb; stroke-width: 0.8"/>
      </g>
     </g>
     <g id="text_5">
      <!-- 0.4 -->
      <g style="fill: #e5e7eb" transform="translate(280.941782 256.318437) scale(0.1 -0.1)">
       <defs>
        <path id="DejaVuSans-34" d="M 2419 4116 
L 825 1625 
L 2419 1625 
L 2419 4116 
z
M 2253 4666 
L 3047 4666 
L 3047 1625 
L 3713 1625 
L 3713 1100 
L 3047 1100 
L 3047 0 
L 2419 0 
L 2419 1100 
L 313 1100 
L 313 1709 
L 2253 4666 
z
" transform="scale(0.015625)"/>
       </defs>
       <use xlink:href="#DejaVuSans-30"/>
       <use xlink:href="#DejaVuSans-2e" transform="translate(63.623047 0)"/>
       <use xlink:href="#DejaVuSans-34" transform="translate(95.410156 0)"/>
      </g>
     </g>
    </g>
    <g id="xtick_6">
     <g id="line2d_11">
      <path d="M 328.970197 241.72 
L 328.970197 7.2 
" clip-path="url(#p7b0f8f7c6d)" style="fill: none; stroke-dasharray: 2.22,0.96; stroke-dashoffset: 0; stroke: #374151; stroke-opacity: 0.5; stroke-width: 0.6"/>
     </g>
     <g id="line2d_12">
      <g>
       <use xlink:href="#mdb825850f4" x="328.970197" y="241.72" style="fill: #e5e7eb; stroke: #e5e7eb; stroke-width: 0.8"/>
      </g>
     </g>
     <g id="text_6">
      <!-- 0.5 -->
      <g style="fill: #e5e7eb" transform="translate(321.018634 256.318437) scale(0.1 -0.1)">
       <defs>
        <path id="DejaVuSans-35" d="M 691 4666 
L 3169 4666 
L 3169 4134 
L 1269 4134 
L 1269 2991 
Q 1406 3038 1543 3061 
Q 1681 3084 1819 3084 
Q 2600 3084 3056 2656 
Q 3513 2228 3513 1497 
Q 3513 744 3044 326 
Q 2575 -91 1722 -91 
Q 1428 -91 1123 -41 
Q 819 9 494 109 
L 494 744 
Q 775 591 1075 516 
Q 1375 441 1709 441 
Q 2250 441 2565 725 
Q 2881 1009 2881 1497 
Q 2881 1984 2565 2268 
Q 2250 2553 1709 2553 
Q 1456 2553 1204 2497 
Q 953 2441 691 2322 
L 691 4666 
z
" transform="scale(0.015625)"/>
       </defs>
       <use xlink:href="#DejaVuSans-30"/>
       <use xlink:href="#DejaVuSans-2e" transform="translate(63.623047 0)"/>
       <use xlink:href="#DejaVuSans-35" transform="translate(95.410156 0)"/>
      </g>
     </g>
    </g>
    <g id="xtick_7">
     <g id="line2d_13">
      <path d="M 369.047049 241.72 
L 369.047049 7.2 
" clip-path="url(#p7b0f8f7c6d)" style="fill: none; stroke-dasharray: 2.22,0.96; stroke-dashoffset: 0; stroke: #374151; stroke-opacity: 0.5; stroke-width: 0.6"/>
     </g>
     <g id="line2d_14">
      <g>
       <use xlink:href="#mdb825850f4" x="369.047049" y="241.72" style="fill: #e5e7eb; stroke: #e5e7eb; stroke-width: 0.8"/>
      </g>
     </g>
     <g id="text_7">
      <!-- 0.6 -->
      <g style="fill: #e5e7eb" transform="translate(361.095486 256.318437) scale(0.1 -0.1)">
       <defs>
        <path id="DejaVuSans-36" d="M 2113 2584 
Q 1688 2584 1439 2293 
Q 1191 2003 1191 1497 
Q 1191 994 1439 701 
Q 1688 409 2113 409 
Q 2538 409 2786 701 
Q 3034 994 3034 1497 
Q 3034 2003 2786 2293 
Q 2538 2584 2113 2584 
z
M 3366 4563 
L 3366 3988 
Q 3128 4100 2886 4159 
Q 2644 4219 2406 4219 
Q 1781 4219 1451 3797 
Q 1122 3375 1075 2522 
Q 1259 2794 1537 2939 
Q 1816 3084 2150 3084 
Q 2853 3084 3261 2657 
Q 3669 2231 3669 1497 
Q 3669 778 3244 343 
Q 2819 -91 2113 -91 
Q 1303 -91 875 529 
Q 447 1150 447 2328 
Q 447 3434 972 4092 
Q 1497 4750 2381 4750 
Q 2619 4750 2861 4703 
Q 3103 4656 3366 4563 
z
" transform="scale(0.015625)"/>
       </defs>
       <use xlink:href="#DejaVuSans-30"/>
       <use xlink:href="#DejaVuSans-2e" transform="translate(63.623047 0)"/>
       <use xlink:href="#DejaVuSans-36" transform="translate(95.410156 0)"/>
      </g>
     </g>
    </g>
    <g id="xtick_8">
     <g id="line2d_15">
      <path d="M 409.1239 241.72 
L 409.1239 7.2 
" clip-path="url(#p7b0f8f7c6d)" style="fill: none; stroke-dasharray: 2.22,0.96; stroke-dashoffset: 0; stroke: #374151; stroke-opacity: 0.5; stroke-width: 0.6"/>
     </g>
     <g id="line2d_16">
      <g>
       <use xlink:href="#mdb825850f4" x="409.1239" y="241.72" style="fill: #e5e7eb; stroke: #e5e7eb; stroke-width: 0.8"/>
      </g>
     </g>
     <g id="text_8">
      <!-- 0.7 -->
      <g style="fill: #e5e7eb" transform="translate(401.172338 256.318437) scale(0.1 -0.1)">
       <defs>
        <path id="DejaVuSans-37" d="M 525 4666 
L 3525 4666 
L 3525 4397 
L 1831 0 
L 1172 0 
L 2766 4134 
L 525 4134 
L 525 4666 
z
" transform="scale(0.015625)"/>
       </defs>
       <use xlink:href="#DejaVuSans-30"/>
       <use xlink:href="#DejaVuSans-2e" transform="translate(63.623047 0)"/>
       <use xlink:href="#DejaVuSans-37" transform="translate(95.410156 0)"/>
      </g>
     </g>
    </g>
    <g id="xtick_9">
     <g id="line2d_17">
      <path d="M 449.200752 241.72 
L 449.200752 7.2 
" clip-path="url(#p7b0f8f7c6d)" style="fill: none; stroke-dasharray: 2.22,0.96; stroke-dashoffset: 0; stroke: #374151; stroke-opacity: 0.5; stroke-width: 0.6"/>
     </g>
     <g id="line2d_18">
      <g>
       <use xlink:href="#mdb825850f4" x="449.200752" y="241.72" style="fill: #e5e7eb; stroke: #e5e7eb; stroke-width: 0.8"/>
      </g>
     </g>
     <g id="text_9">
      <!-- 0.8 -->
      <g style="fill: #e5e7eb" transform="translate(441.24919 256.318437) scale(0.1 -0.1)">
       <defs>
        <path id="DejaVuSans-38" d="M 2034 2216 
Q 1584 2216 1326 1975 
Q 1069 1734 1069 1313 
Q 1069 891 1326 650 
Q 1584 409 2034 409 
Q 2484 409 2743 651 
Q 3003 894 3003 1313 
Q 3003 1734 2745 1975 
Q 2488 2216 2034 2216 
z
M 1403 2484 
Q 997 2584 770 2862 
Q 544 3141 544 3541 
Q 544 4100 942 4425 
Q 1341 4750 2034 4750 
Q 2731 4750 3128 4425 
Q 3525 4100 3525 3541 
Q 3525 3141 3298 2862 
Q 3072 2584 2669 2484 
Q 3125 2378 3379 2068 
Q 3634 1759 3634 1313 
Q 3634 634 3220 271 
Q 2806 -91 2034 -91 
Q 1263 -91 848 271 
Q 434 634 434 1313 
Q 434 1759 690 2068 
Q 947 2378 1403 2484 
z
M 1172 3481 
Q 1172 3119 1398 2916 
Q 1625 2713 2034 2713 
Q 2441 2713 2670 2916 
Q 2900 3119 2900 3481 
Q 2900 3844 2670 4047 
Q 2441 4250 2034 4250 
Q 1625 4250 1398 4047 
Q 1172 3844 1172 3481 
z
" transform="scale(0.015625)"/>
       </defs>
       <use xlink:href="#DejaVuSans-30"/>
       <use xlink:href="#DejaVuSans-2e" transform="translate(63.623047 0)"/>
       <use xlink:href="#DejaVuSans-38" transform="translate(95.410156 0)"/>
      </g>
     </g>
    </g>
    <g id="xtick_10">
     <g id="line2d_19">
      <path d="M 489.277604 241.72 
L 489.277604 7.2 
" clip-path="url(#p7b0f8f7c6d)" style="fill: none; stroke-dasharray: 2.22,0.96; stroke-dashoffset: 0; stroke: #374151; stroke-opacity: 0.5; stroke-width: 0.6"/>
     </g>
     <g id="line2d_20">
      <g>
       <use xlink:href="#mdb825850f4" x="489.277604" y="241.72" style="fill: #e5e7eb; stroke: #e5e7eb; stroke-width: 0.8"/>
      </g>
     </g>
     <g id="text_10">
      <!-- 0.9 -->
      <g style="fill: #e5e7eb" transform="translate(481.326042 256.318437) scale(0.1 -0.1)">
       <defs>
        <path id="DejaVuSans-39" d="M 703 97 
L 703 672 
Q 941 559 1184 500 
Q 1428 441 1663 441 
Q 2288 441 2617 861 
Q 2947 1281 2994 2138 
Q 2813 1869 2534 1725 
Q 2256 1581 1919 1581 
Q 1219 1581 811 2004 
Q 403 2428 403 3163 
Q 403 3881 828 4315 
Q 1253 4750 1959 4750 
Q 2769 4750 3195 4129 
Q 3622 3509 3622 2328 
Q 3622 1225 3098 567 
Q 2575 -91 1691 -91 
Q 1453 -91 1209 -44 
Q 966 3 703 97 
z
M 1959 2075 
Q 2384 2075 2632 2365 
Q 2881 2656 2881 3163 
Q 2881 3666 2632 3958 
Q 2384 4250 1959 4250 
Q 1534 4250 1286 3958 
Q 1038 3666 1038 3163 
Q 1038 2656 1286 2365 
Q 1534 2075 1959 2075 
z
" transform="scale(0.015625)"/>
       </defs>
       <use xlink:href="#DejaVuSans-30"/>
       <use xlink:href="#DejaVuSans-2e" transform="translate(63.623047 0)"/>
       <use xlink:href="#DejaVuSans-39" transform="translate(95.410156 0)"/>
      </g>
     </g>
    </g>
    <g id="xtick_11">
     <g id="line2d_21">
      <path d="M 529.354456 241.72 
L 529.354456 7.2 
" clip-path="url(#p7b0f8f7c6d)" style="fill: none; stroke-dasharray: 2.22,0.96; stroke-dashoffset: 0; stroke: #374151; stroke-opacity: 0.5; stroke-width: 0.6"/>
     </g>
     <g id="line2d_22">
      <g>
       <use xlink:href="#mdb825850f4" x="529.354456" y="241.72" style="fill: #e5e7eb; stroke: #e5e7eb; stroke-width: 0.8"/>
      </g>
     </g>
     <g id="text_11">
      <!-- 1.0 -->
      <g style="fill: #e5e7eb" transform="translate(521.402894 256.318437) scale(0.1 -0.1)">
       <use xlink:href="#DejaVuSans-31"/>
       <use xlink:href="#DejaVuSans-2e" transform="translate(63.623047 0)"/>
       <use xlink:href="#DejaVuSans-30" transform="translate(95.410156 0)"/>
      </g>
     </g>
    </g>
    <g id="text_12">
     <!-- F1 score -->
     <g style="fill: #e5e7eb" transform="translate(321.814141 270.756406) scale(0.11 -0.11)">
      <defs>
       <path id="DejaVuSans-46" d="M 628 4666 
L 3309 4666 
L 3309 4134 
L 1259 4134 
L 1259 2759 
L 3109 2759 
L 3109 2228 
L 1259 2228 
L 1259 0 
L 628 0 
L 628 4666 
z
" transform="scale(0.015625)"/>
       <path id="DejaVuSans-20" transform="scale(0.015625)"/>
       <path id="DejaVuSans-73" d="M 2834 3397 
L 2834 2853 
Q 2591 2978 2328 3040 
Q 2066 3103 1784 3103 
Q 1356 3103 1142 2972 
Q 928 2841 928 2578 
Q 928 2378 1081 2264 
Q 1234 2150 1697 2047 
L 1894 2003 
Q 2506 1872 2764 1633 
Q 3022 1394 3022 966 
Q 3022 478 2636 193 
Q 2250 -91 1575 -91 
Q 1294 -91 989 -36 
Q 684 19 347 128 
L 347 722 
Q 666 556 975 473 
Q 1284 391 1588 391 
Q 1994 391 2212 530 
Q 2431 669 2431 922 
Q 2431 1156 2273 1281 
Q 2116 1406 1581 1522 
L 1381 1569 
Q 847 1681 609 1914 
Q 372 2147 372 2553 
Q 372 3047 722 3315 
Q 1072 3584 1716 3584 
Q 2034 3584 2315 3537 
Q 2597 3491 2834 3397 
z
" transform="scale(0.015625)"/>
       <path id="DejaVuSans-63" d="M 3122 3366 
L 3122 2828 
Q 2878 2963 2633 3030 
Q 2388 3097 2138 3097 
Q 1578 3097 1268 2742 
Q 959 2388 959 1747 
Q 959 1106 1268 751 
Q 1578 397 2138 397 
Q 2388 397 2633 464 
Q 2878 531 3122 666 
L 3122 134 
Q 2881 22 2623 -34 
Q 2366 -91 2075 -91 
Q 1284 -91 818 406 
Q 353 903 353 1747 
Q 353 2603 823 3093 
Q 1294 3584 2113 3584 
Q 2378 3584 2631 3529 
Q 2884 3475 3122 3366 
z
" transform="scale(0.015625)"/>
       <path id="DejaVuSans-6f" d="M 1959 3097 
Q 1497 3097 1228 2736 
Q 959 2375 959 1747 
Q 959 1119 1226 758 
Q 1494 397 1959 397 
Q 2419 397 2687 759 
Q 2956 1122 2956 1747 
Q 2956 2369 2687 2733 
Q 2419 3097 1959 3097 
z
M 1959 3584 
Q 2709 3584 3137 3096 
Q 3566 2609 3566 1747 
Q 3566 888 3137 398 
Q 2709 -91 1959 -91 
Q 1206 -91 779 398 
Q 353 888 353 1747 
Q 353 2609 779 3096 
Q 1206 3584 1959 3584 
z
" transform="scale(0.015625)"/>
       <path id="DejaVuSans-72" d="M 2631 2963 
Q 2534 3019 2420 3045 
Q 2306 3072 2169 3072 
Q 1681 3072 1420 2755 
Q 1159 2438 1159 1844 
L 1159 0 
L 581 0 
L 581 3500 
L 1159 3500 
L 1159 2956 
Q 1341 3275 1631 3429 
Q 1922 3584 2338 3584 
Q 2397 3584 2469 3576 
Q 2541 3569 2628 3553 
L 2631 2963 
z
" transform="scale(0.015625)"/>
       <path id="DejaVuSans-65" d="M 3597 1894 
L 3597 1613 
L 953 1613 
Q 991 1019 1311 708 
Q 1631 397 2203 397 
Q 2534 397 2845 478 
Q 3156 559 3463 722 
L 3463 178 
Q 3153 47 2828 -22 
Q 2503 -91 2169 -91 
Q 1331 -91 842 396 
Q 353 884 353 1716 
Q 353 2575 817 3079 
Q 1281 3584 2069 3584 
Q 2775 3584 3186 3129 
Q 3597 2675 3597 1894 
z
M 3022 2063 
Q 3016 2534 2758 2815 
Q 2500 3097 2075 3097 
Q 1594 3097 1305 2825 
Q 1016 2553 972 2059 
L 3022 2063 
z
" transform="scale(0.015625)"/>
      </defs>
      <use xlink:href="#DejaVuSans-46"/>
      <use xlink:href="#DejaVuSans-31" transform="translate(57.519531 0)"/>
      <use xlink:href="#DejaVuSans-20" transform="translate(121.142578 0)"/>
      <use xlink:href="#DejaVuSans-73" transform="translate(152.929688 0)"/>
      <use xlink:href="#DejaVuSans-63" transform="translate(205.029297 0)"/>
      <use xlink:href="#DejaVuSans-6f" transform="translate(260.009766 0)"/>
      <use xlink:href="#DejaVuSans-72" transform="translate(321.191406 0)"/>
      <use xlink:href="#DejaVuSans-65" transform="translate(360.054688 0)"/>
     </g>
    </g>
   </g>
   <g id="matplotlib.axis_2">
    <g id="ytick_1">
     <g id="line2d_23">
      <defs>
       <path id="m0a812544aa" d="M 0 0 
L -3.5 0 
" style="stroke: #e5e7eb; stroke-width: 0.8"/>
      </defs>
      <g>
       <use xlink:href="#m0a812544aa" x="128.585938" y="219.638571" style="fill: #e5e7eb; stroke: #e5e7eb; stroke-width: 0.8"/>
      </g>
     </g>
     <g id="text_13">
      <!-- validation_error -->
      <g style="fill: #e5e7eb" transform="translate(25.260937 223.464353) scale(0.1 -0.1)">
       <defs>
        <path id="DejaVuSansMono-76" d="M 313 3500 
L 909 3500 
L 1925 563 
L 2944 3500 
L 3541 3500 
L 2297 0 
L 1556 0 
L 313 3500 
z
" transform="scale(0.015625)"/>
        <path id="DejaVuSansMono-61" d="M 2194 1759 
L 2003 1759 
Q 1500 1759 1245 1582 
Q 991 1406 991 1056 
Q 991 741 1181 566 
Q 1372 391 1709 391 
Q 2184 391 2456 720 
Q 2728 1050 2731 1631 
L 2731 1759 
L 2194 1759 
z
M 3309 1997 
L 3309 0 
L 2731 0 
L 2731 519 
Q 2547 206 2267 57 
Q 1988 -91 1588 -91 
Q 1053 -91 734 211 
Q 416 513 416 1019 
Q 416 1603 808 1906 
Q 1200 2209 1959 2209 
L 2731 2209 
L 2731 2300 
Q 2728 2719 2518 2908 
Q 2309 3097 1850 3097 
Q 1556 3097 1256 3012 
Q 956 2928 672 2766 
L 672 3341 
Q 991 3463 1283 3523 
Q 1575 3584 1850 3584 
Q 2284 3584 2592 3456 
Q 2900 3328 3091 3072 
Q 3209 2916 3259 2686 
Q 3309 2456 3309 1997 
z
" transform="scale(0.015625)"/>
        <path id="DejaVuSansMono-6c" d="M 1997 1269 
Q 1997 881 2139 684 
Q 2281 488 2559 488 
L 3231 488 
L 3231 0 
L 2503 0 
Q 1988 0 1705 331 
Q 1422 663 1422 1269 
L 1422 4447 
L 500 4447 
L 500 4897 
L 1997 4897 
L 1997 1269 
z
" transform="scale(0.015625)"/>
        <path id="DejaVuSansMono-69" d="M 800 3500 
L 2272 3500 
L 2272 447 
L 3413 447 
L 3413 0 
L 556 0 
L 556 447 
L 1697 447 
L 1697 3053 
L 800 3053 
L 800 3500 
z
M 1697 4863 
L 2272 4863 
L 2272 4134 
L 1697 4134 
L 1697 4863 
z
" transform="scale(0.015625)"/>
        <path id="DejaVuSansMono-64" d="M 2681 3053 
L 2681 4863 
L 3256 4863 
L 3256 0 
L 2681 0 
L 2681 441 
Q 2538 181 2298 45 
Q 2059 -91 1747 -91 
Q 1113 -91 748 401 
Q 384 894 384 1759 
Q 384 2613 750 3098 
Q 1116 3584 1747 3584 
Q 2063 3584 2303 3448 
Q 2544 3313 2681 3053 
z
M 991 1747 
Q 991 1078 1203 737 
Q 1416 397 1831 397 
Q 2247 397 2464 740 
Q 2681 1084 2681 1747 
Q 2681 2413 2464 2755 
Q 2247 3097 1831 3097 
Q 1416 3097 1203 2756 
Q 991 2416 991 1747 
z
" transform="scale(0.015625)"/>
        <path id="DejaVuSansMono-74" d="M 1919 4494 
L 1919 3500 
L 3225 3500 
L 3225 3053 
L 1919 3053 
L 1919 1153 
Q 1919 766 2066 612 
Q 2213 459 2578 459 
L 3225 459 
L 3225 0 
L 2522 0 
Q 1875 0 1609 259 
Q 1344 519 1344 1153 
L 1344 3053 
L 409 3053 
L 409 3500 
L 1344 3500 
L 1344 4494 
L 1919 4494 
z
" transform="scale(0.015625)"/>
        <path id="DejaVuSansMono-6f" d="M 1925 3097 
Q 1488 3097 1263 2756 
Q 1038 2416 1038 1747 
Q 1038 1081 1263 739 
Q 1488 397 1925 397 
Q 2366 397 2591 739 
Q 2816 1081 2816 1747 
Q 2816 2416 2591 2756 
Q 2366 3097 1925 3097 
z
M 1925 3584 
Q 2653 3584 3039 3112 
Q 3425 2641 3425 1747 
Q 3425 850 3040 379 
Q 2656 -91 1925 -91 
Q 1197 -91 812 379 
Q 428 850 428 1747 
Q 428 2641 812 3112 
Q 1197 3584 1925 3584 
z
" transform="scale(0.015625)"/>
        <path id="DejaVuSansMono-6e" d="M 3284 2169 
L 3284 0 
L 2706 0 
L 2706 2169 
Q 2706 2641 2540 2862 
Q 2375 3084 2022 3084 
Q 1619 3084 1401 2798 
Q 1184 2513 1184 1978 
L 1184 0 
L 609 0 
L 609 3500 
L 1184 3500 
L 1184 2975 
Q 1338 3275 1600 3429 
Q 1863 3584 2222 3584 
Q 2756 3584 3020 3232 
Q 3284 2881 3284 2169 
z
" transform="scale(0.015625)"/>
        <path id="DejaVuSansMono-5f" d="M 3853 -1259 
L 3853 -1509 
L 0 -1509 
L 0 -1259 
L 3853 -1259 
z
" transform="scale(0.015625)"/>
        <path id="DejaVuSansMono-65" d="M 3475 1894 
L 3475 1613 
L 984 1613 
L 984 1594 
Q 984 1022 1282 709 
Q 1581 397 2125 397 
Q 2400 397 2700 484 
Q 3000 572 3341 750 
L 3341 178 
Q 3013 44 2708 -23 
Q 2403 -91 2119 -91 
Q 1303 -91 843 398 
Q 384 888 384 1747 
Q 384 2584 834 3084 
Q 1284 3584 2034 3584 
Q 2703 3584 3089 3131 
Q 3475 2678 3475 1894 
z
M 2900 2063 
Q 2888 2569 2661 2833 
Q 2434 3097 2009 3097 
Q 1594 3097 1325 2822 
Q 1056 2547 1006 2059 
L 2900 2063 
z
" transform="scale(0.015625)"/>
        <path id="DejaVuSansMono-72" d="M 3609 2778 
Q 3425 2922 3234 2987 
Q 3044 3053 2816 3053 
Q 2278 3053 1993 2715 
Q 1709 2378 1709 1741 
L 1709 0 
L 1131 0 
L 1131 3500 
L 1709 3500 
L 1709 2816 
Q 1853 3188 2151 3386 
Q 2450 3584 2859 3584 
Q 3072 3584 3256 3531 
Q 3441 3478 3609 3366 
L 3609 2778 
z
" transform="scale(0.015625)"/>
       </defs>
       <use xlink:href="#DejaVuSansMono-76"/>
       <use xlink:href="#DejaVuSansMono-61" transform="translate(60.205078 0)"/>
       <use xlink:href="#DejaVuSansMono-6c" transform="translate(120.410156 0)"/>
       <use xlink:href="#DejaVuSansMono-69" transform="translate(180.615234 0)"/>
       <use xlink:href="#DejaVuSansMono-64" transform="translate(240.820312 0)"/>
       <use xlink:href="#DejaVuSansMono-61" transform="translate(301.025391 0)"/>
       <use xlink:href="#DejaVuSansMono-74" transform="translate(361.230469 0)"/>
       <use xlink:href="#DejaVuSansMono-69" transform="translate(421.435547 0)"/>
       <use xlink:href="#DejaVuSansMono-6f" transform="translate(481.640625 0)"/>
       <use xlink:href="#DejaVuSansMono-6e" transform="translate(541.845703 0)"/>
       <use xlink:href="#DejaVuSansMono-5f" transform="translate(602.050781 0)"/>
       <use xlink:href="#DejaVuSansMono-65" transform="translate(662.255859 0)"/>
       <use xlink:href="#DejaVuSansMono-72" transform="translate(722.460938 0)"/>
       <use xlink:href="#DejaVuSansMono-72" transform="translate(782.666016 0)"/>
       <use xlink:href="#DejaVuSansMono-6f" transform="translate(842.871094 0)"/>
       <use xlink:href="#DejaVuSansMono-72" transform="translate(903.076172 0)"/>
      </g>
     </g>
    </g>
    <g id="ytick_2">
     <g id="line2d_24">
      <g>
       <use xlink:href="#m0a812544aa" x="128.585938" y="181.567143" style="fill: #e5e7eb; stroke: #e5e7eb; stroke-width: 0.8"/>
      </g>
     </g>
     <g id="text_14">
      <!-- distraction -->
      <g style="fill: #e5e7eb" transform="translate(55.3625 185.392924) scale(0.1 -0.1)">
       <defs>
        <path id="DejaVuSansMono-73" d="M 3041 3378 
L 3041 2816 
Q 2794 2959 2544 3031 
Q 2294 3103 2034 3103 
Q 1644 3103 1451 2976 
Q 1259 2850 1259 2591 
Q 1259 2356 1403 2240 
Q 1547 2125 2119 2016 
L 2350 1972 
Q 2778 1891 2998 1647 
Q 3219 1403 3219 1013 
Q 3219 494 2850 201 
Q 2481 -91 1825 -91 
Q 1566 -91 1281 -36 
Q 997 19 666 128 
L 666 722 
Q 988 556 1281 473 
Q 1575 391 1838 391 
Q 2219 391 2428 545 
Q 2638 700 2638 978 
Q 2638 1378 1872 1531 
L 1847 1538 
L 1631 1581 
Q 1134 1678 906 1908 
Q 678 2138 678 2534 
Q 678 3038 1018 3311 
Q 1359 3584 1991 3584 
Q 2272 3584 2531 3532 
Q 2791 3481 3041 3378 
z
" transform="scale(0.015625)"/>
        <path id="DejaVuSansMono-63" d="M 3316 178 
Q 3084 44 2839 -23 
Q 2594 -91 2338 -91 
Q 1525 -91 1067 396 
Q 609 884 609 1747 
Q 609 2609 1067 3096 
Q 1525 3584 2338 3584 
Q 2591 3584 2831 3518 
Q 3072 3453 3316 3316 
L 3316 2713 
Q 3088 2916 2858 3006 
Q 2628 3097 2338 3097 
Q 1797 3097 1506 2747 
Q 1216 2397 1216 1747 
Q 1216 1100 1508 748 
Q 1800 397 2338 397 
Q 2638 397 2875 489 
Q 3113 581 3316 775 
L 3316 178 
z
" transform="scale(0.015625)"/>
       </defs>
       <use xlink:href="#DejaVuSansMono-64"/>
       <use xlink:href="#DejaVuSansMono-69" transform="translate(60.205078 0)"/>
       <use xlink:href="#DejaVuSansMono-73" transform="translate(120.410156 0)"/>
       <use xlink:href="#DejaVuSansMono-74" transform="translate(180.615234 0)"/>
       <use xlink:href="#DejaVuSansMono-72" transform="translate(240.820312 0)"/>
       <use xlink:href="#DejaVuSansMono-61" transform="translate(301.025391 0)"/>
       <use xlink:href="#DejaVuSansMono-63" transform="translate(361.230469 0)"/>
       <use xlink:href="#DejaVuSansMono-74" transform="translate(421.435547 0)"/>
       <use xlink:href="#DejaVuSansMono-69" transform="translate(481.640625 0)"/>
       <use xlink:href="#DejaVuSansMono-6f" transform="translate(541.845703 0)"/>
       <use xlink:href="#DejaVuSansMono-6e" transform="translate(602.050781 0)"/>
      </g>
     </g>
    </g>
    <g id="ytick_3">
     <g id="line2d_25">
      <g>
       <use xlink:href="#m0a812544aa" x="128.585938" y="143.495714" style="fill: #e5e7eb; stroke: #e5e7eb; stroke-width: 0.8"/>
      </g>
     </g>
     <g id="text_15">
      <!-- comparison_shopping -->
      <g style="fill: #e5e7eb" transform="translate(7.2 147.294933) scale(0.1 -0.1)">
       <defs>
        <path id="DejaVuSansMono-6d" d="M 2113 3144 
Q 2219 3369 2383 3476 
Q 2547 3584 2778 3584 
Q 3200 3584 3373 3257 
Q 3547 2931 3547 2028 
L 3547 0 
L 3022 0 
L 3022 2003 
Q 3022 2744 2939 2923 
Q 2856 3103 2638 3103 
Q 2388 3103 2295 2911 
Q 2203 2719 2203 2003 
L 2203 0 
L 1678 0 
L 1678 2003 
Q 1678 2753 1589 2928 
Q 1500 3103 1269 3103 
Q 1041 3103 952 2911 
Q 863 2719 863 2003 
L 863 0 
L 341 0 
L 341 3500 
L 863 3500 
L 863 3200 
Q 966 3388 1120 3486 
Q 1275 3584 1472 3584 
Q 1709 3584 1867 3475 
Q 2025 3366 2113 3144 
z
" transform="scale(0.015625)"/>
        <path id="DejaVuSansMono-70" d="M 1172 441 
L 1172 -1331 
L 594 -1331 
L 594 3500 
L 1172 3500 
L 1172 3053 
Q 1316 3313 1555 3448 
Q 1794 3584 2106 3584 
Q 2741 3584 3102 3093 
Q 3463 2603 3463 1734 
Q 3463 881 3100 395 
Q 2738 -91 2106 -91 
Q 1788 -91 1548 45 
Q 1309 181 1172 441 
z
M 2859 1747 
Q 2859 2416 2648 2756 
Q 2438 3097 2022 3097 
Q 1603 3097 1387 2755 
Q 1172 2413 1172 1747 
Q 1172 1084 1387 740 
Q 1603 397 2022 397 
Q 2438 397 2648 737 
Q 2859 1078 2859 1747 
z
" transform="scale(0.015625)"/>
        <path id="DejaVuSansMono-68" d="M 3284 2169 
L 3284 0 
L 2706 0 
L 2706 2169 
Q 2706 2641 2540 2862 
Q 2375 3084 2022 3084 
Q 1619 3084 1401 2798 
Q 1184 2513 1184 1978 
L 1184 0 
L 609 0 
L 609 4863 
L 1184 4863 
L 1184 2975 
Q 1338 3275 1600 3429 
Q 1863 3584 2222 3584 
Q 2756 3584 3020 3232 
Q 3284 2881 3284 2169 
z
" transform="scale(0.015625)"/>
        <path id="DejaVuSansMono-67" d="M 2681 1778 
Q 2681 2425 2470 2761 
Q 2259 3097 1856 3097 
Q 1434 3097 1212 2761 
Q 991 2425 991 1778 
Q 991 1131 1214 792 
Q 1438 453 1863 453 
Q 2259 453 2470 793 
Q 2681 1134 2681 1778 
z
M 3256 225 
Q 3256 -563 2884 -969 
Q 2513 -1375 1791 -1375 
Q 1553 -1375 1293 -1331 
Q 1034 -1288 775 -1203 
L 775 -634 
Q 1081 -778 1331 -847 
Q 1581 -916 1791 -916 
Q 2256 -916 2468 -662 
Q 2681 -409 2681 141 
L 2681 166 
L 2681 556 
Q 2544 263 2306 119 
Q 2069 -25 1728 -25 
Q 1116 -25 750 465 
Q 384 956 384 1778 
Q 384 2603 750 3093 
Q 1116 3584 1728 3584 
Q 2066 3584 2300 3450 
Q 2534 3316 2681 3034 
L 2681 3488 
L 3256 3488 
L 3256 225 
z
" transform="scale(0.015625)"/>
       </defs>
       <use xlink:href="#DejaVuSansMono-63"/>
       <use xlink:href="#DejaVuSansMono-6f" transform="translate(60.205078 0)"/>
       <use xlink:href="#DejaVuSansMono-6d" transform="translate(120.410156 0)"/>
       <use xlink:href="#DejaVuSansMono-70" transform="translate(180.615234 0)"/>
       <use xlink:href="#DejaVuSansMono-61" transform="translate(240.820312 0)"/>
       <use xlink:href="#DejaVuSansMono-72" transform="translate(301.025391 0)"/>
       <use xlink:href="#DejaVuSansMono-69" transform="translate(361.230469 0)"/>
       <use xlink:href="#DejaVuSansMono-73" transform="translate(421.435547 0)"/>
       <use xlink:href="#DejaVuSansMono-6f" transform="translate(481.640625 0)"/>
       <use xlink:href="#DejaVuSansMono-6e" transform="translate(541.845703 0)"/>
       <use xlink:href="#DejaVuSansMono-5f" transform="translate(602.050781 0)"/>
       <use xlink:href="#DejaVuSansMono-73" transform="translate(662.255859 0)"/>
       <use xlink:href="#DejaVuSansMono-68" transform="translate(722.460938 0)"/>
       <use xlink:href="#DejaVuSansMono-6f" transform="translate(782.666016 0)"/>
       <use xlink:href="#DejaVuSansMono-70" transform="translate(842.871094 0)"/>
       <use xlink:href="#DejaVuSansMono-70" transform="translate(903.076172 0)"/>
       <use xlink:href="#DejaVuSansMono-69" transform="translate(963.28125 0)"/>
       <use xlink:href="#DejaVuSansMono-6e" transform="translate(1023.486328 0)"/>
       <use xlink:href="#DejaVuSansMono-67" transform="translate(1083.691406 0)"/>
      </g>
     </g>
    </g>
    <g id="ytick_4">
     <g id="line2d_26">
      <g>
       <use xlink:href="#m0a812544aa" x="128.585938" y="105.424286" style="fill: #e5e7eb; stroke: #e5e7eb; stroke-width: 0.8"/>
      </g>
     </g>
     <g id="text_16">
      <!-- accidental_exit -->
      <g style="fill: #e5e7eb" transform="translate(31.28125 109.250067) scale(0.1 -0.1)">
       <defs>
        <path id="DejaVuSansMono-78" d="M 3494 3500 
L 2241 1825 
L 3616 0 
L 2950 0 
L 1925 1403 
L 903 0 
L 238 0 
L 1613 1825 
L 359 3500 
L 997 3500 
L 1925 2234 
L 2847 3500 
L 3494 3500 
z
" transform="scale(0.015625)"/>
       </defs>
       <use xlink:href="#DejaVuSansMono-61"/>
       <use xlink:href="#DejaVuSansMono-63" transform="translate(60.205078 0)"/>
       <use xlink:href="#DejaVuSansMono-63" transform="translate(120.410156 0)"/>
       <use xlink:href="#DejaVuSansMono-69" transform="translate(180.615234 0)"/>
       <use xlink:href="#DejaVuSansMono-64" transform="translate(240.820312 0)"/>
       <use xlink:href="#DejaVuSansMono-65" transform="translate(301.025391 0)"/>
       <use xlink:href="#DejaVuSansMono-6e" transform="translate(361.230469 0)"/>
       <use xlink:href="#DejaVuSansMono-74" transform="translate(421.435547 0)"/>
       <use xlink:href="#DejaVuSansMono-61" transform="translate(481.640625 0)"/>
       <use xlink:href="#DejaVuSansMono-6c" transform="translate(541.845703 0)"/>
       <use xlink:href="#DejaVuSansMono-5f" transform="translate(602.050781 0)"/>
       <use xlink:href="#DejaVuSansMono-65" transform="translate(662.255859 0)"/>
       <use xlink:href="#DejaVuSansMono-78" transform="translate(722.460938 0)"/>
       <use xlink:href="#DejaVuSansMono-69" transform="translate(782.666016 0)"/>
       <use xlink:href="#DejaVuSansMono-74" transform="translate(842.871094 0)"/>
      </g>
     </g>
    </g>
    <g id="ytick_5">
     <g id="line2d_27">
      <g>
       <use xlink:href="#m0a812544aa" x="128.585938" y="67.352857" style="fill: #e5e7eb; stroke: #e5e7eb; stroke-width: 0.8"/>
      </g>
     </g>
     <g id="text_17">
      <!-- bot -->
      <g style="fill: #e5e7eb" transform="translate(103.525 71.178638) scale(0.1 -0.1)">
       <defs>
        <path id="DejaVuSansMono-62" d="M 2869 1747 
Q 2869 2416 2656 2756 
Q 2444 3097 2028 3097 
Q 1609 3097 1393 2755 
Q 1178 2413 1178 1747 
Q 1178 1084 1393 740 
Q 1609 397 2028 397 
Q 2444 397 2656 737 
Q 2869 1078 2869 1747 
z
M 1178 3053 
Q 1316 3309 1558 3446 
Q 1800 3584 2119 3584 
Q 2750 3584 3112 3098 
Q 3475 2613 3475 1759 
Q 3475 894 3111 401 
Q 2747 -91 2113 -91 
Q 1800 -91 1561 45 
Q 1322 181 1178 441 
L 1178 0 
L 603 0 
L 603 4863 
L 1178 4863 
L 1178 3053 
z
" transform="scale(0.015625)"/>
       </defs>
       <use xlink:href="#DejaVuSansMono-62"/>
       <use xlink:href="#DejaVuSansMono-6f" transform="translate(60.205078 0)"/>
       <use xlink:href="#DejaVuSansMono-74" transform="translate(120.410156 0)"/>
      </g>
     </g>
    </g>
    <g id="ytick_6">
     <g id="line2d_28">
      <g>
       <use xlink:href="#m0a812544aa" x="128.585938" y="29.281429" style="fill: #e5e7eb; stroke: #e5e7eb; stroke-width: 0.8"/>
      </g>
     </g>
     <g id="text_18">
      <!-- committed_leave -->
      <g style="fill: #e5e7eb" transform="translate(31.28125 33.10721) scale(0.1 -0.1)">
       <use xlink:href="#DejaVuSansMono-63"/>
       <use xlink:href="#DejaVuSansMono-6f" transform="translate(60.205078 0)"/>
       <use xlink:href="#DejaVuSansMono-6d" transform="translate(120.410156 0)"/>
       <use xlink:href="#DejaVuSansMono-6d" transform="translate(180.615234 0)"/>
       <use xlink:href="#DejaVuSansMono-69" transform="translate(240.820312 0)"/>
       <use xlink:href="#DejaVuSansMono-74" transform="translate(301.025391 0)"/>
       <use xlink:href="#DejaVuSansMono-74" transform="translate(361.230469 0)"/>
       <use xlink:href="#DejaVuSansMono-65" transform="translate(421.435547 0)"/>
       <use xlink:href="#DejaVuSansMono-64" transform="translate(481.640625 0)"/>
       <use xlink:href="#DejaVuSansMono-5f" transform="translate(541.845703 0)"/>
       <use xlink:href="#DejaVuSansMono-6c" transform="translate(602.050781 0)"/>
       <use xlink:href="#DejaVuSansMono-65" transform="translate(662.255859 0)"/>
       <use xlink:href="#DejaVuSansMono-61" transform="translate(722.460938 0)"/>
       <use xlink:href="#DejaVuSansMono-76" transform="translate(782.666016 0)"/>
       <use xlink:href="#DejaVuSansMono-65" transform="translate(842.871094 0)"/>
      </g>
     </g>
    </g>
   </g>
   <g id="patch_3">
    <path d="M 128.585938 231.06 
L 512.12141 231.06 
L 512.12141 208.217143 
L 128.585938 208.217143 
z
" clip-path="url(#p7b0f8f7c6d)" style="fill: #22c55e"/>
   </g>
   <g id="patch_4">
    <path d="M 128.585938 192.988571 
L 529.354456 192.988571 
L 529.354456 170.145714 
L 128.585938 170.145714 
z
" clip-path="url(#p7b0f8f7c6d)" style="fill: #22c55e"/>
   </g>
   <g id="patch_5">
    <path d="M 128.585938 154.917143 
L 489.277604 154.917143 
L 489.277604 132.074286 
L 128.585938 132.074286 
z
" clip-path="url(#p7b0f8f7c6d)" style="fill: #f59e0b"/>
   </g>
   <g id="patch_6">
    <path d="M 128.585938 116.845714 
L 529.354456 116.845714 
L 529.354456 94.002857 
L 128.585938 94.002857 
z
" clip-path="url(#p7b0f8f7c6d)" style="fill: #22c55e"/>
   </g>
   <g id="patch_7">
    <path d="M 128.585938 78.774286 
L 484.86915 78.774286 
L 484.86915 55.931429 
L 128.585938 55.931429 
z
" clip-path="url(#p7b0f8f7c6d)" style="fill: #f59e0b"/>
   </g>
   <g id="patch_8">
    <path d="M 128.585938 40.702857 
L 429.162326 40.702857 
L 429.162326 17.86 
L 128.585938 17.86 
z
" clip-path="url(#p7b0f8f7c6d)" style="fill: #f59e0b"/>
   </g>
   <g id="patch_9">
    <path d="M 128.585938 241.72 
L 128.585938 7.2 
" style="fill: none; stroke: #374151; stroke-width: 0.8; stroke-linejoin: miter; stroke-linecap: square"/>
   </g>
   <g id="patch_10">
    <path d="M 561.415937 241.72 
L 561.415937 7.2 
" style="fill: none; stroke: #374151; stroke-width: 0.8; stroke-linejoin: miter; stroke-linecap: square"/>
   </g>
   <g id="patch_11">
    <path d="M 128.585938 241.72 
L 561.415937 241.72 
" style="fill: none; stroke: #374151; stroke-width: 0.8; stroke-linejoin: miter; stroke-linecap: square"/>
   </g>
   <g id="patch_12">
    <path d="M 128.585938 7.2 
L 561.415937 7.2 
" style="fill: none; stroke: #374151; stroke-width: 0.8; stroke-linejoin: miter; stroke-linecap: square"/>
   </g>
   <g id="text_19">
    <!-- 0.957 -->
    <g style="fill: #e5e7eb" transform="translate(516.930632 222.122009) scale(0.09 -0.09)">
     <use xlink:href="#DejaVuSans-30"/>
     <use xlink:href="#DejaVuSans-2e" transform="translate(63.623047 0)"/>
     <use xlink:href="#DejaVuSans-39" transform="translate(95.410156 0)"/>
     <use xlink:href="#DejaVuSans-35" transform="translate(159.033203 0)"/>
     <use xlink:href="#DejaVuSans-37" transform="translate(222.65625 0)"/>
    </g>
   </g>
   <g id="text_20">
    <!-- 1.000 -->
    <g style="fill: #e5e7eb" transform="translate(534.163678 184.05058) scale(0.09 -0.09)">
     <use xlink:href="#DejaVuSans-31"/>
     <use xlink:href="#DejaVuSans-2e" transform="translate(63.623047 0)"/>
     <use xlink:href="#DejaVuSans-30" transform="translate(95.410156 0)"/>
     <use xlink:href="#DejaVuSans-30" transform="translate(159.033203 0)"/>
     <use xlink:href="#DejaVuSans-30" transform="translate(222.65625 0)"/>
    </g>
   </g>
   <g id="text_21">
    <!-- 0.900 -->
    <g style="fill: #e5e7eb" transform="translate(494.086826 145.979152) scale(0.09 -0.09)">
     <use xlink:href="#DejaVuSans-30"/>
     <use xlink:href="#DejaVuSans-2e" transform="translate(63.623047 0)"/>
     <use xlink:href="#DejaVuSans-39" transform="translate(95.410156 0)"/>
     <use xlink:href="#DejaVuSans-30" transform="translate(159.033203 0)"/>
     <use xlink:href="#DejaVuSans-30" transform="translate(222.65625 0)"/>
    </g>
   </g>
   <g id="text_22">
    <!-- 1.000 -->
    <g style="fill: #e5e7eb" transform="translate(534.163678 107.907723) scale(0.09 -0.09)">
     <use xlink:href="#DejaVuSans-31"/>
     <use xlink:href="#DejaVuSans-2e" transform="translate(63.623047 0)"/>
     <use xlink:href="#DejaVuSans-30" transform="translate(95.410156 0)"/>
     <use xlink:href="#DejaVuSans-30" transform="translate(159.033203 0)"/>
     <use xlink:href="#DejaVuSans-30" transform="translate(222.65625 0)"/>
    </g>
   </g>
   <g id="text_23">
    <!-- 0.889 -->
    <g style="fill: #e5e7eb" transform="translate(489.678373 69.836295) scale(0.09 -0.09)">
     <use xlink:href="#DejaVuSans-30"/>
     <use xlink:href="#DejaVuSans-2e" transform="translate(63.623047 0)"/>
     <use xlink:href="#DejaVuSans-38" transform="translate(95.410156 0)"/>
     <use xlink:href="#DejaVuSans-38" transform="translate(159.033203 0)"/>
     <use xlink:href="#DejaVuSans-39" transform="translate(222.65625 0)"/>
    </g>
   </g>
   <g id="text_24">
    <!-- 0.750 -->
    <g style="fill: #e5e7eb" transform="translate(433.971549 31.764866) scale(0.09 -0.09)">
     <use xlink:href="#DejaVuSans-30"/>
     <use xlink:href="#DejaVuSans-2e" transform="translate(63.623047 0)"/>
     <use xlink:href="#DejaVuSans-37" transform="translate(95.410156 0)"/>
     <use xlink:href="#DejaVuSans-35" transform="translate(159.033203 0)"/>
     <use xlink:href="#DejaVuSans-30" transform="translate(222.65625 0)"/>
    </g>
   </g>
   <g id="legend_1">
    <g id="patch_13">
     <path d="M 479.427344 237.22 
L 555.115937 237.22 
Q 556.915937 237.22 556.915937 235.42 
L 556.915937 196.689062 
Q 556.915937 194.889062 555.115937 194.889062 
L 479.427344 194.889062 
Q 477.627344 194.889062 477.627344 196.689062 
L 477.627344 235.42 
Q 477.627344 237.22 479.427344 237.22 
z
" style="fill: #1f2937; opacity: 0.8; stroke: #374151; stroke-linejoin: miter"/>
    </g>
    <g id="patch_14">
     <path d="M 481.227344 205.327656 
L 499.227344 205.327656 
L 499.227344 199.027656 
L 481.227344 199.027656 
z
" style="fill: #22c55e; stroke: #22c55e; stroke-linejoin: miter"/>
    </g>
    <g id="text_25">
     <!-- F1 &gt; 0.9 -->
     <g style="fill: #e5e7eb" transform="translate(506.427344 205.327656) scale(0.09 -0.09)">
      <defs>
       <path id="DejaVuSans-3e" d="M 678 3150 
L 678 3719 
L 4684 2266 
L 4684 1747 
L 678 294 
L 678 863 
L 3897 2003 
L 678 3150 
z
" transform="scale(0.015625)"/>
      </defs>
      <use xlink:href="#DejaVuSans-46"/>
      <use xlink:href="#DejaVuSans-31" transform="translate(57.519531 0)"/>
      <use xlink:href="#DejaVuSans-20" transform="translate(121.142578 0)"/>
      <use xlink:href="#DejaVuSans-3e" transform="translate(152.929688 0)"/>
      <use xlink:href="#DejaVuSans-20" transform="translate(236.71875 0)"/>
      <use xlink:href="#DejaVuSans-30" transform="translate(268.505859 0)"/>
      <use xlink:href="#DejaVuSans-2e" transform="translate(332.128906 0)"/>
      <use xlink:href="#DejaVuSans-39" transform="translate(363.916016 0)"/>
     </g>
    </g>
    <g id="patch_15">
     <path d="M 481.227344 218.537969 
L 499.227344 218.537969 
L 499.227344 212.237969 
L 481.227344 212.237969 
z
" style="fill: #f59e0b; stroke: #f59e0b; stroke-linejoin: miter"/>
    </g>
    <g id="text_26">
     <!-- F1 0.7–0.9 -->
     <g style="fill: #e5e7eb" transform="translate(506.427344 218.537969) scale(0.09 -0.09)">
      <defs>
       <path id="DejaVuSans-2013" d="M 313 1978 
L 2888 1978 
L 2888 1528 
L 313 1528 
L 313 1978 
z
" transform="scale(0.015625)"/>
      </defs>
      <use xlink:href="#DejaVuSans-46"/>
      <use xlink:href="#DejaVuSans-31" transform="translate(57.519531 0)"/>
      <use xlink:href="#DejaVuSans-20" transform="translate(121.142578 0)"/>
      <use xlink:href="#DejaVuSans-30" transform="translate(152.929688 0)"/>
      <use xlink:href="#DejaVuSans-2e" transform="translate(216.552734 0)"/>
      <use xlink:href="#DejaVuSans-37" transform="translate(248.339844 0)"/>
      <use xlink:href="#DejaVuSans-2013" transform="translate(311.962891 0)"/>
      <use xlink:href="#DejaVuSans-30" transform="translate(361.962891 0)"/>
      <use xlink:href="#DejaVuSans-2e" transform="translate(425.585938 0)"/>
      <use xlink:href="#DejaVuSans-39" transform="translate(457.373047 0)"/>
     </g>
    </g>
    <g id="patch_16">
     <path d="M 481.227344 231.748281 
L 499.227344 231.748281 
L 499.227344 225.448281 
L 481.227344 225.448281 
z
" style="fill: #ef4444; stroke: #ef4444; stroke-linejoin: miter"/>
    </g>
    <g id="text_27">
     <!-- F1 &lt; 0.7 -->
     <g style="fill: #e5e7eb" transform="translate(506.427344 231.748281) scale(0.09 -0.09)">
      <defs>
       <path id="DejaVuSans-3c" d="M 4684 3150 
L 1459 2003 
L 4684 863 
L 4684 294 
L 678 1747 
L 678 2266 
L 4684 3719 
L 4684 3150 
z
" transform="scale(0.015625)"/>
      </defs>
      <use xlink:href="#DejaVuSans-46"/>
      <use xlink:href="#DejaVuSans-31" transform="translate(57.519531 0)"/>
      <use xlink:href="#DejaVuSans-20" transform="translate(121.142578 0)"/>
      <use xlink:href="#DejaVuSans-3c" transform="translate(152.929688 0)"/>
      <use xlink:href="#DejaVuSans-20" transform="translate(236.71875 0)"/>
      <use xlink:href="#DejaVuSans-30" transform="translate(268.505859 0)"/>
      <use xlink:href="#DejaVuSans-2e" transform="translate(332.128906 0)"/>
      <use xlink:href="#DejaVuSans-37" transform="translate(363.916016 0)"/>
     </g>
    </g>
   </g>
  </g>
 </g>
 <defs>
  <clipPath id="p7b0f8f7c6d">
   <rect x="128.585938" y="7.2" width="432.83" height="234.52"/>
  </clipPath>
 </defs>
</svg>
